<?xml version="1.0" encoding="UTF-8" standalone="no"?>
<!DOCTYPE svg PUBLIC "-//W3C//DTD SVG 1.1//EN" "http://www.w3.org/Graphics/SVG/1.1/DTD/svg11.dtd">
<svg width="100%" height="100%" viewBox="0 0 399 458" version="1.1" xmlns="http://www.w3.org/2000/svg" xmlns:xlink="http://www.w3.org/1999/xlink" xml:space="preserve" xmlns:serif="http://www.serif.com/" style="fill-rule:evenodd;clip-rule:evenodd;stroke-linecap:round;stroke-linejoin:round;stroke-miterlimit:1.5;">
    <path d="M158.116,457.181C153.376,457.329 148.929,454.891 146.503,450.815C144.078,446.739 144.057,441.667 146.448,437.571C171.344,394.653 185.614,344.814 185.614,291.668C185.614,191.036 134.452,102.26 56.744,49.952C47.882,43.958 43.648,33.11 46.106,22.698C48.565,12.285 57.203,4.476 67.81,3.078C80.485,1.372 93.419,0.5 106.554,0.5C267.254,0.5 397.722,130.968 397.722,291.668C397.722,304.573 396.881,317.283 395.25,329.746C394.953,331.978 394.076,334.093 392.707,335.881C336.813,408.495 250.678,453.598 158.116,457.181Z" style="fill:rgb(204,204,204);fill-opacity:0.411765;stroke:black;stroke-width:1px;"/>
</svg>
