<?xml version="1.0" encoding="UTF-8" standalone="no"?>
<!DOCTYPE svg PUBLIC "-//W3C//DTD SVG 1.1//EN" "http://www.w3.org/Graphics/SVG/1.1/DTD/svg11.dtd">
<svg width="274px" height="447px" version="1.1" xmlns="http://www.w3.org/2000/svg" xmlns:xlink="http://www.w3.org/1999/xlink" xml:space="preserve" xmlns:serif="http://www.serif.com/" style="fill-rule:evenodd;clip-rule:evenodd;stroke-linecap:round;stroke-linejoin:round;stroke-miterlimit:1.5;">
    <path d="M271.718,309.268C272.409,312.054 271.868,315.003 270.234,317.363C214.628,397.13 122.436,446.138 23.672,445.99C20.298,445.959 17.168,444.226 15.353,441.382C13.538,438.538 13.283,434.97 14.675,431.897C53.602,344.577 59.766,242.569 23.943,145.935C10.95,110.884 3.481,75.127 1.095,39.62C0.64,33.133 4.158,27.016 9.994,24.147C15.83,21.278 22.823,22.229 27.681,26.553C46.522,43.174 67.338,58.103 89.993,71.038L92.123,72.25C185.391,125.501 247.481,212.553 271.718,309.268Z" style="fill:rgb(255,203,39);fill-opacity:0.380471;stroke:rgb(253,188,0);stroke-opacity:0.99;stroke-width:0.5px;"/>
    <path d="M23.854,435.974L23.854,145.962" style="fill:none;stroke:rgb(255,181,0);stroke-width:0.5px;"/>
</svg>
