<?xml version="1.0" encoding="UTF-8" standalone="no"?>
<!DOCTYPE svg PUBLIC "-//W3C//DTD SVG 1.1//EN" "http://www.w3.org/Graphics/SVG/1.1/DTD/svg11.dtd">
<svg width="272px" height="424px" version="1.1" xmlns="http://www.w3.org/2000/svg" xmlns:xlink="http://www.w3.org/1999/xlink" xml:space="preserve" xmlns:serif="http://www.serif.com/" style="fill-rule:evenodd;clip-rule:evenodd;stroke-linecap:round;stroke-linejoin:round;stroke-miterlimit:1.5;">
    <path d="M23.08,123.521C10.122,88.521 2.671,52.817 0.289,17.363C-0.166,10.876 3.352,4.759 9.188,1.89C15.025,-0.978 22.017,-0.027 26.875,4.296C45.716,20.917 66.532,35.847 89.188,48.782L91.317,49.993C184.586,103.244 246.676,190.296 270.912,287.011C271.603,289.797 271.062,292.746 269.429,295.106C213.822,374.873 121.63,423.881 22.866,423.733C19.493,423.703 16.363,421.969 14.547,419.125C12.732,416.282 12.477,412.713 13.87,409.64L14.12,409.076C41.833,365.64 57.897,314.065 57.897,258.767C57.897,209.732 45.265,163.623 23.08,123.521Z" style="fill:rgb(255,203,39);fill-opacity:0.380471;stroke:rgb(253,188,0);stroke-opacity:0.99;stroke-width:0.5px;"/>
    <path d="M23.048,413.717L23.048,123.705" style="fill:none;stroke:rgb(255,181,0);stroke-width:0.5px;"/>
</svg>
